<?xml version="1.0" standalone="no"?>
<!DOCTYPE svg PUBLIC "-//W3C//DTD SVG 20010904//EN"
 "http://www.w3.org/TR/2001/REC-SVG-20010904/DTD/svg10.dtd">
<svg xmlns="http://www.w3.org/2000/svg" version="1.0" width="120.000000pt" height="30.000000pt" viewBox="0 0 300.000000 93.000000" preserveAspectRatio="xMidYMid meet">
<metadata>
Created by potrace 1.10, written by Peter Selinger 2001-2011
</metadata>
<g transform="translate(0.000000,93.000000) scale(0.100000,-0.100000)" fill="#ffff
" stroke="none">
<path d="M465 851 c-61 -38 -95 -92 -95 -152 0 -29 -1 -29 -54 -29 -33 0 -58 -5 -63 -12 -15 -24 -71 -512 -61 -537 18 -50 23 -50 346 -51 179 0 311 4 322 10 38 20 38 54 6 315 -17 138 -35 256 -39 263 -5 7 -30 12 -61 12 l-53 0 -5 51 c-6 56 -28 93 -78 127 -42 28 -122 30 -165 3z m141 -59 c29 -23 44 -54 44 -91 l0 -31 -111 0 -112 0 6 43 c8 58 51 97 110 97 25 0 51 -8 63 -18z m-175 -145 c22 -17 204 -14 225 4 12 9 22 8 53 -6 22 -9 43 -15 49 -11 5 3 17 0 27 -8 13 -9 21 -40 31 -127 7 -63 18 -148 23 -189 16 -115 14 -175 -6 -191 -13 -11 -73 -14 -295 -14 -279 0 -280 0 -298 23 -10 12 -17 30 -16 40 2 9 7 49 10 87 4 39 9 81 11 95 2 14 7 50 10 80 20 178 34 218 77 207 9 -3 25 1 35 9 22 17 43 17 64 1z"/>
<path d="M622 599 c-29 -26 -28 -64 3 -94 32 -33 74 -32 110 0 21 21 26 31 20 53 -10 42 -25 54 -57 47 -16 -4 -35 -2 -42 4 -9 8 -18 5 -34 -10z m48 -54 c15 -9 42 15 35 32 -3 9 0 13 7 11 21 -7 20 -43 -2 -63 -39 -35 -95 4 -75 53 6 15 8 14 15 -4 5 -12 14 -25 20 -29z"/>
<path d="M335 590 c-36 -40 5 -110 65 -110 60 0 104 77 64 111 -25 20 -110 20 -129 -1z m65 -45 c8 0 20 11 26 23 14 29 29 12 20 -23 -13 -49 -96 -36 -96 15 0 28 12 31 24 7 7 -12 18 -22 26 -22z"/>
<path d="M2242 634 c-27 -18 -28 -45 -4 -67 25 -23 48 -21 66 5 20 29 20 34 -4 58 -24 24 -29 24 -58 4z"/>
<path d="M1260 435 l0 -205 40 0 40 0 0 90 c0 77 3 93 20 110 26 26 55 25 74 -2 12 -16 16 -47 16 -110 l0 -88 38 0 37 0 -5 116 c-5 115 -5 116 -38 145 -39 35 -87 38 -125 9 l-25 -20 5 80 6 80 -42 0 -41 0 0 -205z m67 29 c2 -5 -3 -19 -12 -29 -14 -19 -14 -18 -15 13 0 31 18 42 27 16z"/>
<path d="M1030 619 c-65 -26 -91 -83 -66 -143 12 -29 28 -42 93 -74 64 -31 79 -43 81 -64 6 -51 -78 -58 -130 -11 -16 14 -19 13 -42 -13 -13 -16 -22 -33 -19 -37 12 -20 91 -47 136 -47 84 0 137 43 137 112 0 49 -31 83 -110 122 -76 37 -94 60 -66 82 26 18 60 18 98 -2 30 -15 31 -15 57 11 25 26 26 26 6 38 -59 35 -126 45 -175 26z"/>
<path d="M1642 503 c-129 -63 -99 -251 45 -278 85 -16 185 84 169 170 -18 96 -127 151 -214 108z m116 -73 c31 -29 30 -83 -3 -115 -28 -29 -51 -31 -83 -9 -32 22 -44 58 -31 92 20 54 77 69 117 32z"/>
<path d="M1900 518 c0 -2 -1 -92 -3 -201 l-2 -197 38 0 37 0 0 71 0 71 26 -17 c43 -28 111 -15 150 28 60 65 54 158 -12 217 -40 35 -98 41 -139 14 -23 -15 -25 -15 -25 0 0 12 -9 16 -35 16 -19 0 -35 -1 -35 -2z m194 -90 c38 -53 9 -128 -49 -128 -38 0 -75 37 -75 75 0 12 9 34 21 49 27 34 81 36 103 4z m-134 -123 c10 -12 10 -18 0 -30 -18 -22 -25 -18 -28 15 -3 33 8 39 28 15z"/>
<path d="M2230 375 l0 -145 40 0 40 0 0 145 0 145 -40 0 -40 0 0 -145z"/>
<path d="M2352 483 l3 -37 63 3 c34 1 62 -1 62 -4 0 -4 -29 -40 -65 -81 -49 -56 -65 -82 -65 -104 l0 -30 115 0 115 0 0 35 0 35 -65 0 -66 0 66 81 c46 58 65 89 65 110 l0 29 -116 0 -115 0 3 -37z"/>
<path d="M2672 500 c-45 -28 -72 -76 -72 -130 0 -139 159 -195 254 -90 32 36 36 46 36 94 0 44 -5 60 -26 86 -52 61 -130 78 -192 40z m128 -78 c32 -40 20 -98 -26 -122 -50 -27 -116 35 -99 92 21 68 84 83 125 30z"/>
</g>
</svg>
